#N canvas 426 147 1366 685 10;
#X obj 253 40 bng 15 250 50 0 empty empty empty 17 7 0 10 -262144 -1
-1;
#X msg 168 57 0;
#X floatatom 253 175 5 0 0 0 - - -;
#X msg 398 51 0;
#X obj 65 -25 key;
#X floatatom 33 2 5 0 0 0 - - -;
#X text 432 98 start time in seconds;
#X text 328 129 bang every second;
#X obj 284 131 - 1;
#X obj 253 130 +;
#X text 326 156 less 1;
#X text 327 142 seconds lost every second;
#X msg 187 330 stop;
#X msg 268 252 1;
#X obj 268 223 bng 15 250 50 0 empty empty empty 17 7 0 10 -262144
-1 -1;
#X obj 268 283 +;
#X obj 253 332 +;
#X floatatom 254 360 5 0 0 0 - - -;
#X floatatom 309 300 5 0 0 0 - - -;
#X text 361 336 seconds won!;
#X text 295 360 TIME LEFT;
#X obj 218 647 cnv 15 100 60 empty time_up empty 20 12 0 14 -3531 -262144
0;
#X obj 253 66 t b b b;
#X msg 465 300 0;
#X text 154 174 time from start;
#X text 499 299 reset "wins";
#X obj 296 223 bng 15 250 50 0 empty empty empty 17 7 0 10 -262144
-1 -1;
#X obj 331 223 bng 15 250 50 0 empty empty empty 17 7 0 10 -262144
-1 -1;
#X obj 356 223 bng 15 250 50 0 empty empty empty 17 7 0 10 -262144
-1 -1;
#X text 266 204 bang to win a extra time;
#X msg 296 252 0.75;
#X msg 331 252 0.5;
#X msg 356 252 0.25;
#X obj 389 223 bng 15 250 50 0 empty empty empty 17 7 0 10 -262144
-1 -1;
#X msg 389 252 0.125;
#X obj 363 95 v TsetTime;
#X obj 848 236 s TsetTime;
#X obj 901 201 * 60;
#X obj 551 390 % 60;
#X obj 435 392 div 60;
#X obj 432 448 div 60;
#X obj 499 452 % 60;
#X obj 555 433 s Tsl;
#X obj 501 475 s Tml;
#X obj 446 491 s Thl;
#X obj 554 411 abs;
#X obj 268 -7 sel 167;
#X obj 362 -6 sel 48;
#X text 66 558 13 is red;
#X msg 294 550 \; time_up color -121897;
#X msg 172 549 \; time_up color 13;
#X msg 646 6 1;
#X msg 646 6;
#X msg 680 7 -1;
#X obj 692 53 s TsetInit;
#X obj 804 4 v TsetInit;
#X msg 719 8 10;
#X msg 755 9 -10;
#X obj 692 32 expr TsetInit + $f1;
#X obj 646 -15 sel 119 113 87 81;
#X text 600 -37 shift = * 10 qw = 1 min;
#X obj 899 175 r TsetMin;
#X obj 439 369 abs;
#X msg 253 421 0;
#X msg 330 420 1;
#X obj 254 459 change;
#X obj 255 511 sel 0;
#X obj 918 -27 loadbang;
#X msg 923 32 \; pd dsp 1;
#X obj 770 628 readsf~ 2;
#X msg 750 605 start;
#X obj 749 553 t b b;
#X obj 778 686 *~;
#X obj 815 684 *~;
#X obj 976 528 vsl 15 128 0 1.1 0 0 empty empty empty 0 -9 0 10 -262144
-1 -1 5773 1;
#X msg 685 616 stop;
#X obj 970 476 r lb;
#X obj 979 -4 bng 15 250 50 0 empty empty empty 17 7 0 10 -262144 -1
-1;
#X obj 1000 11 s lb;
#X text 843 631 last is end command;
#X obj 785 748 dac~ 1 2;
#X msg 782 582 open ../samples/bell1-a.wav;
#X msg 171 425 0;
#X obj 171 404 r lb;
#X obj 433 420 change;
#X msg 971 499 0.5;
#X text 262 -28 ยง to start;
#X obj 162 -3 sel 27;
#X obj 443 470 change;
#X obj 307 476 r Tchoice;
#X obj 985 241 r TsetTime;
#X obj 988 333 s Tchoice;
#X obj 983 281 moses 1;
#X msg 1026 303 0;
#X obj 254 393 moses 0;
#X msg 985 301 100;
#X obj 253 104 metro 1000;
#X text 100 -24 esc to reset and stop;
#X text 421 -9 cnrl ยง resets to 0;
#X text 1071 299 countdown timer vs time lapse timer;
#X msg 989 30 \; TsetInit 10;
#X obj 291 29 hradio 15 1 0 2 off/on empty off/on -3 -8 0 10 -110918
-258113 -1 2;
#X connect 0 0 22 0;
#X connect 1 0 96 0;
#X connect 2 0 16 0;
#X connect 3 0 2 0;
#X connect 4 0 5 0;
#X connect 4 0 87 0;
#X connect 8 0 9 1;
#X connect 9 0 8 0;
#X connect 9 0 2 0;
#X connect 12 0 96 0;
#X connect 13 0 15 0;
#X connect 14 0 13 0;
#X connect 15 0 16 1;
#X connect 15 0 18 0;
#X connect 16 0 17 0;
#X connect 17 0 62 0;
#X connect 17 0 94 0;
#X connect 18 0 15 1;
#X connect 22 0 96 0;
#X connect 22 1 35 0;
#X connect 22 2 23 0;
#X connect 23 0 15 1;
#X connect 23 0 16 1;
#X connect 23 0 18 0;
#X connect 26 0 30 0;
#X connect 27 0 31 0;
#X connect 28 0 32 0;
#X connect 30 0 15 0;
#X connect 31 0 15 0;
#X connect 32 0 15 0;
#X connect 33 0 34 0;
#X connect 34 0 15 0;
#X connect 35 0 9 1;
#X connect 37 0 36 0;
#X connect 37 0 92 0;
#X connect 38 0 45 0;
#X connect 39 0 84 0;
#X connect 40 0 88 0;
#X connect 41 0 43 0;
#X connect 45 0 42 0;
#X connect 46 0 0 0;
#X connect 46 1 47 0;
#X connect 47 0 3 0;
#X connect 47 1 59 0;
#X connect 51 0 58 0;
#X connect 53 0 58 0;
#X connect 56 0 58 0;
#X connect 57 0 58 0;
#X connect 58 0 54 0;
#X connect 59 0 51 0;
#X connect 59 0 52 0;
#X connect 59 1 53 0;
#X connect 59 2 56 0;
#X connect 59 3 57 0;
#X connect 61 0 37 0;
#X connect 62 0 38 0;
#X connect 62 0 39 0;
#X connect 63 0 65 0;
#X connect 64 0 65 0;
#X connect 65 0 66 0;
#X connect 66 0 50 0;
#X connect 66 0 71 0;
#X connect 66 1 49 0;
#X connect 67 0 77 0;
#X connect 69 0 72 0;
#X connect 69 1 73 0;
#X connect 70 0 69 0;
#X connect 71 0 70 0;
#X connect 71 1 81 0;
#X connect 72 0 80 0;
#X connect 73 0 80 1;
#X connect 74 0 73 1;
#X connect 74 0 72 1;
#X connect 75 0 69 0;
#X connect 76 0 85 0;
#X connect 77 0 78 0;
#X connect 77 0 100 0;
#X connect 77 0 68 0;
#X connect 81 0 69 0;
#X connect 82 0 65 0;
#X connect 83 0 82 0;
#X connect 84 0 40 0;
#X connect 84 0 41 0;
#X connect 85 0 74 0;
#X connect 87 0 1 0;
#X connect 87 1 46 0;
#X connect 88 0 44 0;
#X connect 89 0 66 1;
#X connect 90 0 92 0;
#X connect 92 0 95 0;
#X connect 92 1 93 0;
#X connect 93 0 91 0;
#X connect 94 0 63 0;
#X connect 94 1 64 0;
#X connect 95 0 91 0;
#X connect 96 0 9 0;
